<svg width="50" height="50" viewBox="0 0 50 50" fill="none" xmlns="http://www.w3.org/2000/svg">
<path d="M13.5625 31.5C12.6996 31.5 12 32.2835 12 33.25C12 34.2165 12.6996 35 13.5625 35H35.4375C36.3004 35 37 34.2165 37 33.25C37 32.2835 36.3004 31.5 35.4375 31.5H13.5625Z" fill="currentColor"/>
<path d="M12 24.5C12 23.5335 12.6996 22.75 13.5625 22.75H35.4375C36.3004 22.75 37 23.5335 37 24.5C37 25.4665 36.3004 26.25 35.4375 26.25H13.5625C12.6996 26.25 12 25.4665 12 24.5Z" fill="currentColor"/>
<path d="M12 15.75C12 14.7835 12.6996 14 13.5625 14H35.4375C36.3004 14 37 14.7835 37 15.75C37 16.7165 36.3004 17.5 35.4375 17.5H13.5625C12.6996 17.5 12 16.7165 12 15.75Z" fill="currentColor"/>
</svg>
