<svg width="44" height="44" viewBox="0 0 44 44" fill="none" xmlns="http://www.w3.org/2000/svg">
<path d="M3.6665 13.1667C3.6665 11.2811 3.6665 10.3383 4.25229 9.75247C4.83808 9.16669 5.78089 9.16669 7.6665 9.16669H36.3332C38.2188 9.16669 39.1616 9.16669 39.7474 9.75247C40.3332 10.3383 40.3332 11.2811 40.3332 13.1667V17.3334C40.3332 17.8048 40.3332 18.0405 40.1867 18.1869C40.0403 18.3334 39.8046 18.3334 39.3332 18.3334H4.66651C4.1951 18.3334 3.9594 18.3334 3.81295 18.1869C3.6665 18.0405 3.6665 17.8048 3.6665 17.3334V13.1667Z" fill="currentColor"/>
<path fill-rule="evenodd" clip-rule="evenodd" d="M3.6665 36.3333C3.6665 38.219 3.6665 39.1618 4.25229 39.7475C4.83808 40.3333 5.78089 40.3333 7.6665 40.3333H36.3332C38.2188 40.3333 39.1616 40.3333 39.7474 39.7475C40.3332 39.1618 40.3332 38.219 40.3332 36.3333V23C40.3332 22.5286 40.3332 22.2929 40.1867 22.1464C40.0403 22 39.8046 22 39.3332 22H4.66651C4.1951 22 3.9594 22 3.81295 22.1464C3.6665 22.2929 3.6665 22.5286 3.6665 23V36.3333ZM12.8332 26.6667C12.8332 26.1953 12.8332 25.9596 12.9796 25.8131C13.1261 25.6667 13.3618 25.6667 13.8332 25.6667H19.1665C19.6379 25.6667 19.8736 25.6667 20.0201 25.8131C20.1665 25.9596 20.1665 26.1953 20.1665 26.6667V28.3333C20.1665 28.8047 20.1665 29.0404 20.0201 29.1869C19.8736 29.3333 19.6379 29.3333 19.1665 29.3333H13.8332C13.3618 29.3333 13.1261 29.3333 12.9796 29.1869C12.8332 29.0404 12.8332 28.8047 12.8332 28.3333V26.6667ZM12.9796 33.1464C12.8332 33.2929 12.8332 33.5286 12.8332 34V35.6667C12.8332 36.1381 12.8332 36.3738 12.9796 36.5202C13.1261 36.6667 13.3618 36.6667 13.8332 36.6667H19.1665C19.6379 36.6667 19.8736 36.6667 20.0201 36.5202C20.1665 36.3738 20.1665 36.1381 20.1665 35.6667V34C20.1665 33.5286 20.1665 33.2929 20.0201 33.1464C19.8736 33 19.6379 33 19.1665 33H13.8332C13.3618 33 13.1261 33 12.9796 33.1464ZM23.8332 26.6667C23.8332 26.1953 23.8332 25.9596 23.9796 25.8131C24.1261 25.6667 24.3618 25.6667 24.8332 25.6667H30.1665C30.6379 25.6667 30.8736 25.6667 31.0201 25.8131C31.1665 25.9596 31.1665 26.1953 31.1665 26.6667V28.3333C31.1665 28.8047 31.1665 29.0404 31.0201 29.1869C30.8736 29.3333 30.6379 29.3333 30.1665 29.3333H24.8332C24.3618 29.3333 24.1261 29.3333 23.9796 29.1869C23.8332 29.0404 23.8332 28.8047 23.8332 28.3333V26.6667ZM23.9796 33.1464C23.8332 33.2929 23.8332 33.5286 23.8332 34V35.6667C23.8332 36.1381 23.8332 36.3738 23.9796 36.5202C24.1261 36.6667 24.3618 36.6667 24.8332 36.6667H30.1665C30.6379 36.6667 30.8736 36.6667 31.0201 36.5202C31.1665 36.3738 31.1665 36.1381 31.1665 35.6667V34C31.1665 33.5286 31.1665 33.2929 31.0201 33.1464C30.8736 33 30.6379 33 30.1665 33H24.8332C24.3618 33 24.1261 33 23.9796 33.1464Z" fill="currentColor"/>
<path d="M12.8335 5.5L12.8335 11" stroke="currentColor" stroke-width="2" stroke-linecap="round"/>
<path d="M31.1665 5.5L31.1665 11" stroke="currentColor" stroke-width="2" stroke-linecap="round"/>
</svg>
