<svg width="33" height="44" viewBox="0 0 33 44" fill="none" xmlns="http://www.w3.org/2000/svg">
<g id="&#240;&#159;&#166;&#134; icon &#34;Child&#34;">
<path id="Vector" d="M10.3125 6.1875C10.3125 2.7702 13.0827 0 16.5 0C19.9173 0 22.6875 2.7702 22.6875 6.1875C22.6875 9.60472 19.9173 12.375 16.5 12.375C13.0827 12.375 10.3125 9.60472 10.3125 6.1875ZM32.1945 6.30549C31.1206 5.23153 29.3793 5.23153 28.3055 6.30549L20.8609 13.75H12.139L4.69449 6.30549C3.62061 5.23153 1.87935 5.23153 0.805471 6.30549C-0.26849 7.37945 -0.26849 9.12063 0.805471 10.1946L8.93748 18.3265V41.25C8.93748 42.7688 10.1687 44 11.6875 44H13.0625C14.5813 44 15.8125 42.7688 15.8125 41.25V31.625H17.1875V41.25C17.1875 42.7688 18.4187 44 19.9375 44H21.3125C22.8313 44 24.0625 42.7688 24.0625 41.25V18.3265L32.1945 10.1945C33.2684 9.12055 33.2684 7.37945 32.1945 6.30549Z" fill="currentColor"/>
</g>
</svg>
