<svg width="44" height="36" viewBox="0 0 44 36" fill="none" xmlns="http://www.w3.org/2000/svg">
<g id="&#240;&#159;&#166;&#134; icon &#34;Helping Hands&#34;">
<path id="Vector" d="M33.5515 13.1985H23.1015V17.0485C23.1015 19.7778 20.8809 21.9985 18.1515 21.9985C15.4222 21.9985 13.2015 19.7778 13.2015 17.0485V8.6885L8.73968 11.3697C7.4128 12.1604 6.60156 13.5972 6.60156 15.1372V18.3891L1.10157 21.5653C0.049693 22.1703 -0.314681 23.5178 0.297192 24.5697L5.79718 34.0984C6.40218 35.1503 7.74968 35.5078 8.80155 34.9028L15.9103 30.7985H25.3015C27.7284 30.7985 29.7015 28.8253 29.7015 26.3985H30.8015C32.0184 26.3985 33.0015 25.4153 33.0015 24.1985V19.7985H33.5515C34.4659 19.7985 35.2015 19.0629 35.2015 18.1485V14.8485C35.2015 13.9341 34.4659 13.1985 33.5515 13.1985ZM43.7059 10.6272L38.2059 1.09851C37.6009 0.0466377 36.2534 -0.310862 35.2015 0.294137L28.0928 4.3985H21.0665C20.2415 4.3985 19.4372 4.63225 18.7359 5.06538L16.4328 6.50225C15.7865 6.901 15.4015 7.60912 15.4015 8.36537V17.0485C15.4015 18.5679 16.6322 19.7985 18.1515 19.7985C19.6709 19.7985 20.9015 18.5679 20.9015 17.0485V10.9985H33.5515C35.6759 10.9985 37.4015 12.7241 37.4015 14.8485V16.8079L42.9015 13.6316C43.9534 13.0197 44.3109 11.6791 43.7059 10.6272Z" fill="currentColor"/>
</g>
</svg>
