<svg width="26" height="25" viewBox="0 0 26 25" fill="none" xmlns="http://www.w3.org/2000/svg">
<path d="M12.8952 6.09032C9.34731 6.09032 6.48554 8.95208 6.48554 12.5C6.48554 16.0479 9.34731 18.9097 12.8952 18.9097C16.4431 18.9097 19.3049 16.0479 19.3049 12.5C19.3049 8.95208 16.4431 6.09032 12.8952 6.09032ZM12.8952 16.6671C10.6025 16.6671 8.72809 14.7983 8.72809 12.5C8.72809 10.2017 10.5969 8.33287 12.8952 8.33287C15.1936 8.33287 17.0624 10.2017 17.0624 12.5C17.0624 14.7983 15.188 16.6671 12.8952 16.6671ZM21.0621 5.82813C21.0621 6.65932 20.3927 7.32316 19.5671 7.32316C18.7359 7.32316 18.0721 6.65374 18.0721 5.82813C18.0721 5.00251 18.7415 4.33309 19.5671 4.33309C20.3927 4.33309 21.0621 5.00251 21.0621 5.82813ZM25.3074 7.34548C25.2125 5.3428 24.7551 3.56884 23.2879 2.10727C21.8264 0.64571 20.0524 0.188274 18.0497 0.0878612C15.9857 -0.0292871 9.79916 -0.0292871 7.73512 0.0878612C5.73802 0.182696 3.96407 0.640132 2.49692 2.1017C1.02978 3.56326 0.577922 5.33722 0.47751 7.3399C0.360361 9.40394 0.360361 15.5905 0.47751 17.6545C0.572344 19.6572 1.02978 21.4312 2.49692 22.8927C3.96407 24.3543 5.73245 24.8117 7.73512 24.9121C9.79916 25.0293 15.9857 25.0293 18.0497 24.9121C20.0524 24.8173 21.8264 24.3599 23.2879 22.8927C24.7495 21.4312 25.207 19.6572 25.3074 17.6545C25.4245 15.5905 25.4245 9.40952 25.3074 7.34548ZM22.6408 19.8692C22.2057 20.9626 21.3634 21.8049 20.2644 22.2456C18.6188 22.8983 14.7138 22.7477 12.8952 22.7477C11.0766 22.7477 7.16612 22.8927 5.52604 22.2456C4.43266 21.8105 3.59031 20.9681 3.14961 19.8692C2.49692 18.2235 2.64754 14.3186 2.64754 12.5C2.64754 10.6814 2.5025 6.77089 3.14961 5.13082C3.58473 4.03743 4.42708 3.19508 5.52604 2.75438C7.1717 2.1017 11.0766 2.25232 12.8952 2.25232C14.7138 2.25232 18.6243 2.10727 20.2644 2.75438C21.3578 3.1895 22.2001 4.03185 22.6408 5.13082C23.2935 6.77647 23.1429 10.6814 23.1429 12.5C23.1429 14.3186 23.2935 18.2291 22.6408 19.8692Z" fill="currentColor"/>
</svg>
