<svg width="345" height="37" viewBox="0 0 345 37" fill="none" xmlns="http://www.w3.org/2000/svg">
<path d="M0 6.95864H10.1661C14.3787 6.95864 17.382 7.58323 19.1761 8.8324C20.9701 10.0816 21.8671 11.8756 21.8671 14.2145C21.8671 15.4902 21.6345 16.5733 21.1694 17.4636C20.7176 18.354 20.1395 19.0583 19.4352 19.5766C18.7442 20.0948 18.0332 20.447 17.3023 20.6331V20.8324C18.0997 21.0317 18.8904 21.3639 19.6744 21.8291C20.4717 22.2809 21.1296 22.9653 21.6478 23.8822C22.1794 24.7859 22.4452 26.0151 22.4452 27.5699C22.4452 29.3374 21.9933 30.859 21.0897 32.1347C20.1993 33.4105 18.9236 34.3938 17.2624 35.0849C15.6013 35.7626 13.6279 36.1015 11.3422 36.1015H0V6.95864ZM7.87375 18.1414H10.2458C11.5482 18.1414 12.4651 17.8756 12.9967 17.344C13.5282 16.7992 13.794 16.1414 13.794 15.3706C13.794 14.5733 13.4884 13.9686 12.8771 13.5566C12.2791 13.1314 11.3488 12.9188 10.0864 12.9188H7.87375V18.1414ZM7.87375 23.9022V30.0217H10.6445C12.0133 30.0217 12.9701 29.7294 13.5149 29.1447C14.0598 28.5467 14.3322 27.8025 14.3322 26.9121C14.3322 26.3938 14.2126 25.9088 13.9734 25.457C13.7475 24.9919 13.3555 24.6198 12.7973 24.3407C12.2392 24.0483 11.4684 23.9022 10.485 23.9022H7.87375Z" fill="currentColor"/>
<path d="M84.8172 6.95864V24.5002C84.8172 26.9453 84.3521 29.0716 83.4219 30.8789C82.4916 32.6729 81.0963 34.0616 79.2358 35.045C77.3754 36.0151 75.0431 36.5001 72.2392 36.5001C68.2259 36.5001 65.1627 35.4703 63.0498 33.4105C60.9368 31.3507 59.8804 28.4404 59.8804 24.6796V6.95864H67.794V24.0616C67.794 26.1214 68.1794 27.6164 68.9501 28.5467C69.7209 29.4769 70.8571 29.942 72.3587 29.942C73.4352 29.942 74.3122 29.7427 74.99 29.344C75.6677 28.932 76.1594 28.2875 76.4651 27.4105C76.784 26.5334 76.9435 25.4038 76.9435 24.0218V6.95864H84.8172Z" fill="currentColor"/>
<path d="M103.794 36.1015H95.9202V13.3972H88.8039V6.95864H110.89V13.3972H103.794V36.1015Z" fill="currentColor"/>
<path d="M134.113 27.251C134.113 28.8324 133.714 30.334 132.917 31.756C132.12 33.1646 130.877 34.3075 129.189 35.1845C127.515 36.0616 125.349 36.5001 122.691 36.5001C121.362 36.5001 120.193 36.4403 119.183 36.3207C118.186 36.2011 117.256 36.0085 116.392 35.7427C115.528 35.4636 114.631 35.1048 113.701 34.6663V27.6497C115.282 28.447 116.877 29.0583 118.485 29.4835C120.093 29.8955 121.548 30.1015 122.85 30.1015C123.634 30.1015 124.272 30.0085 124.764 29.8224C125.269 29.6364 125.641 29.3839 125.88 29.0649C126.12 28.7327 126.239 28.354 126.239 27.9287C126.239 27.4237 126.06 26.9985 125.701 26.653C125.355 26.2942 124.797 25.9221 124.026 25.5367C123.256 25.1513 122.239 24.6729 120.977 24.1015C119.9 23.5965 118.924 23.0782 118.046 22.5467C117.183 22.0151 116.438 21.4105 115.814 20.7327C115.203 20.0417 114.731 19.2377 114.399 18.3208C114.066 17.4038 113.9 16.3208 113.9 15.0716C113.9 13.1978 114.359 11.6297 115.276 10.3673C116.206 9.09153 117.495 8.13472 119.143 7.49685C120.804 6.85898 122.718 6.54004 124.884 6.54004C126.784 6.54004 128.492 6.75266 130.007 7.17791C131.535 7.60316 132.904 8.08821 134.113 8.63306L131.701 14.7128C130.452 14.1414 129.222 13.6895 128.013 13.3573C126.804 13.0118 125.681 12.839 124.644 12.839C123.967 12.839 123.409 12.9254 122.97 13.0982C122.545 13.2576 122.226 13.4769 122.013 13.756C121.814 14.035 121.714 14.354 121.714 14.7128C121.714 15.1646 121.887 15.5699 122.232 15.9287C122.591 16.2875 123.183 16.6796 124.007 17.1048C124.844 17.5168 125.98 18.055 127.415 18.7194C128.837 19.3573 130.046 20.0483 131.043 20.7925C132.04 21.5234 132.797 22.4071 133.316 23.4437C133.847 24.4669 134.113 25.736 134.113 27.251Z" fill="currentColor"/>
<path d="M164.664 25.9752C164.664 28.2344 164.244 30.1126 163.402 31.6098C162.56 33.107 161.373 34.2322 159.84 34.9852C158.317 35.7294 156.523 36.1015 154.458 36.1015H148.173V16.6729H154.897C156.988 16.6729 158.76 17.0317 160.213 17.7493C161.665 18.4669 162.768 19.5168 163.521 20.8988C164.283 22.2809 164.664 23.973 164.664 25.9752ZM159.216 26.1613C159.216 24.983 159.056 24.0085 158.737 23.2377C158.427 22.4581 157.958 21.8778 157.329 21.4968C156.7 21.107 155.907 20.9121 154.95 20.9121H153.422V31.7958H154.591C156.186 31.7958 157.355 31.3351 158.1 30.4138C158.844 29.4835 159.216 28.066 159.216 26.1613Z" fill="currentColor"/>
<path d="M179.694 36.1015H168.159V16.6729H179.694V20.8855H173.409V23.942H179.229V28.1546H173.409V31.8224H179.694V36.1015Z" fill="currentColor"/>
<path d="M202.505 36.1015H194.751V6.95864H211.973V13.2776H202.505V18.839H211.236V25.158H202.505V36.1015Z" fill="currentColor"/>
<path d="M216.757 36.1015V6.95864H224.671V36.1015H216.757Z" fill="currentColor"/>
<path d="M279.907 36.1015V6.95864H287.781V29.7427H299.003V36.1015H279.907Z" fill="currentColor"/>
<path d="M303.668 36.1015V6.95864H311.541V29.7427H322.764V36.1015H303.668Z" fill="currentColor"/>
<path d="M344.731 36.1015H327.428V6.95864H344.731V13.2776H335.302V17.8623H344.033V24.1812H335.302V29.6829H344.731V36.1015Z" fill="currentColor"/>
<path d="M251.83 7.974L245.48 14.3236H237.884C236.897 14.3236 236.098 15.1229 236.098 16.1097V26.8264C236.098 27.8125 236.897 28.6126 237.884 28.6126H245.48L251.747 34.878C250.496 35.4211 249.214 35.8148 247.901 36.0591C246.559 36.3114 245.129 36.4375 243.614 36.4375C240.45 36.4375 237.858 35.8134 235.837 34.5652C233.83 33.3037 232.348 31.5575 231.39 29.3266C230.447 27.0957 229.975 24.5063 229.975 21.5584C229.975 19.3541 230.28 17.3357 230.892 15.5032C231.517 13.6707 232.427 12.0838 233.624 10.7426C234.82 9.38818 236.296 8.34578 238.051 7.61544C239.819 6.87181 241.839 6.5 244.113 6.5C245.522 6.5 247.004 6.66599 248.559 6.99796C249.67 7.22353 250.76 7.54887 251.83 7.974Z" fill="currentColor"/>
<path fill-rule="evenodd" clip-rule="evenodd" d="M274.881 36.0392H257.572V6.91829H274.881V13.2325H265.449V17.8137H274.183V24.1279H265.449V29.6254H274.881V36.0392ZM258.843 16.4498C259.321 15.5858 260.408 15.2755 261.27 15.7466C263.371 16.9038 264.677 19.0948 264.677 21.4673C264.677 23.8399 263.371 26.0316 261.271 27.1889C260.41 27.6614 259.322 27.3533 258.844 26.4856C258.368 25.6216 258.683 24.5357 259.547 24.0587C260.507 23.531 261.104 22.5383 261.104 21.4681C261.104 20.3979 260.507 19.4051 259.546 18.8767C258.682 18.3997 258.367 17.3139 258.843 16.4498Z" fill="currentColor"/>
<path d="M46.4693 30.9943C47.9724 30.9943 49.1909 32.2128 49.1909 33.7159C49.1909 35.219 47.9724 36.4375 46.4693 36.4375L34.9025 36.4375C33.3994 36.4375 32.1809 35.219 32.1809 33.7159C32.1809 32.2128 33.3994 30.9943 34.9025 30.9943L46.4693 30.9943Z" fill="currentColor"/>
<path fill-rule="evenodd" clip-rule="evenodd" d="M51.7329 13.9888C53.2336 13.9039 54.5189 15.0517 54.6038 16.5524C54.6259 16.9427 54.6367 17.3382 54.6367 17.7386C54.6367 19.6537 54.3833 21.467 53.8408 23.1534C53.2907 24.8879 52.4077 26.429 51.1819 27.7337C49.9193 29.0779 48.3436 30.0586 46.5389 30.7195L46.5312 30.7223L46.5235 30.7251C44.6884 31.3846 42.6091 31.6748 40.3484 31.6748C38.1234 31.6748 36.0678 31.3826 34.2382 30.7251L34.2275 30.7212L34.2168 30.7172C32.4299 30.058 30.8659 29.0886 29.6001 27.7699L29.5953 27.765L29.5906 27.7601C28.3535 26.4583 27.454 24.9166 26.8804 23.1788C26.3202 21.4816 26.06 19.6489 26.06 17.7089C26.06 17.3187 26.0706 16.9334 26.092 16.5529C26.1766 15.0522 27.4617 13.9042 28.9624 13.9888C30.4631 14.0734 31.6111 15.3585 31.5266 16.8592C31.5111 17.1338 31.5032 17.4169 31.5032 17.7089C31.5032 19.1645 31.6985 20.4097 32.0493 21.4727C32.3859 22.4926 32.8839 23.3224 33.5316 24.0054C34.1504 24.6485 34.9785 25.1949 36.09 25.6065C37.1871 25.9991 38.5879 26.2316 40.3484 26.2316C42.1614 26.2316 43.5828 25.9967 44.675 25.6054C45.7945 25.1943 46.6133 24.6471 47.2147 24.0069C47.853 23.3275 48.3358 22.5076 48.6535 21.5042L48.6556 21.4977L48.6577 21.4911C49.003 20.4193 49.1935 19.1769 49.1935 17.7386C49.1935 17.4366 49.1853 17.1437 49.1693 16.8597C49.0844 15.359 50.2322 14.0736 51.7329 13.9888Z" fill="currentColor"/>
<path d="M34.8449 19.5769C34.4297 18.3125 34.2221 16.8018 34.2221 15.0449C34.2221 13.288 34.4228 11.7707 34.8241 10.4929C35.2393 9.2152 35.8966 8.23028 36.7961 7.53817C37.7094 6.84605 38.9065 6.5 40.3872 6.5C42.6152 6.5 44.1859 7.26531 45.0993 8.79594C46.0126 10.3266 46.4693 12.4096 46.4693 15.0449C46.4693 16.8018 46.2686 18.3125 45.8673 19.5769C45.4798 20.8413 44.8363 21.813 43.9368 22.4918C43.0511 23.1706 41.8541 23.51 40.3457 23.51C38.8926 23.51 37.7164 23.1706 36.8169 22.4918C35.9173 21.813 35.26 20.8413 34.8449 19.5769Z" fill="currentColor"/>
</svg>
