<svg width="44" height="44" viewBox="0 0 44 44" fill="none" xmlns="http://www.w3.org/2000/svg">
<path d="M6.6 20.2C9.02688 20.2 11 18.2269 11 15.8C11 13.3731 9.02688 11.4 6.6 11.4C4.17313 11.4 2.2 13.3731 2.2 15.8C2.2 18.2269 4.17313 20.2 6.6 20.2ZM37.4 20.2C39.8269 20.2 41.8 18.2269 41.8 15.8C41.8 13.3731 39.8269 11.4 37.4 11.4C34.9731 11.4 33 13.3731 33 15.8C33 18.2269 34.9731 20.2 37.4 20.2ZM39.6 22.4H35.2C33.99 22.4 32.8969 22.8881 32.0994 23.6788C34.87 25.1981 36.8363 27.9412 37.2625 31.2H41.8C43.0169 31.2 44 30.2169 44 29V26.8C44 24.3731 42.0269 22.4 39.6 22.4ZM22 22.4C26.2556 22.4 29.7 18.9556 29.7 14.7C29.7 10.4444 26.2556 7 22 7C17.7444 7 14.3 10.4444 14.3 14.7C14.3 18.9556 17.7444 22.4 22 22.4ZM27.28 24.6H26.7094C25.2794 25.2875 23.6912 25.7 22 25.7C20.3088 25.7 18.7275 25.2875 17.2906 24.6H16.72C12.3475 24.6 8.8 28.1475 8.8 32.52V34.5C8.8 36.3219 10.2781 37.8 12.1 37.8H31.9C33.7219 37.8 35.2 36.3219 35.2 34.5V32.52C35.2 28.1475 31.6525 24.6 27.28 24.6ZM11.9006 23.6788C11.1031 22.8881 10.01 22.4 8.8 22.4H4.4C1.97312 22.4 0 24.3731 0 26.8V29C0 30.2169 0.983125 31.2 2.2 31.2H6.73063C7.16375 27.9412 9.13 25.1981 11.9006 23.6788Z" fill="currentColor"/>
</svg>
