<svg width="33" height="44" viewBox="0 0 33 44" fill="none" xmlns="http://www.w3.org/2000/svg">
<path d="M32.5095 32.526L25.6442 24.7498H28.2764C29.0507 24.7498 29.7355 24.3201 30.0621 23.6275C30.3887 22.9366 30.2812 22.1443 29.7802 21.5608L23.0662 13.7502H25.5488C26.3308 13.7502 27.0355 13.2904 27.3414 12.5806C27.6439 11.882 27.5013 11.069 26.9771 10.5113L17.501 0.415708C16.9829 -0.138569 16.0161 -0.138569 15.4971 0.415708L6.02019 10.5113C5.49599 11.069 5.3542 11.882 5.65583 12.5806C5.96176 13.2904 6.66728 13.7502 7.44928 13.7502H9.93193L3.21701 21.5625C2.71773 22.1451 2.61031 22.9366 2.936 23.6284C3.26255 24.3201 3.94659 24.7498 4.72172 24.7498H7.3539L0.488585 32.526C-0.0270223 33.1095 -0.143893 33.9087 0.182658 34.6108C0.504913 35.3026 1.21387 35.7494 1.98814 35.7494H13.7491V37.8505L11.1462 42.0098C10.689 42.9241 11.3542 44 12.3759 44H20.6222C21.644 44 22.3091 42.9241 21.8519 42.0098L19.249 37.8505V35.7494H31.01C31.7842 35.7494 32.4932 35.3026 32.8154 34.6108C33.142 33.9087 33.0251 33.1095 32.5095 32.526Z" fill="currentColor"/>
</svg>
