<svg width="39" height="44" viewBox="0 0 39 44" fill="none" xmlns="http://www.w3.org/2000/svg">
<g id="&#240;&#159;&#166;&#134; icon &#34;Flask&#34;">
<path id="Vector" d="M37.5711 34.6758L27.4992 18.4766V5.5H28.1867C29.3297 5.5 30.2492 4.58047 30.2492 3.4375V2.0625C30.2492 0.919531 29.3297 0 28.1867 0H10.3117C9.16873 0 8.24919 0.919531 8.24919 2.0625V3.4375C8.24919 4.58047 9.16873 5.5 10.3117 5.5H10.9992V18.4766L0.927319 34.6758C-1.59065 38.7234 1.31404 44 6.09216 44H32.4062C37.1929 44 40.089 38.7148 37.5711 34.6758ZM11.85 27.5L15.9922 20.8312C16.3101 20.3844 16.4906 19.8344 16.4906 19.25V5.5H21.9906V19.25C21.9906 19.843 22.1797 20.3844 22.489 20.8312L26.6312 27.5H11.85Z" fill="currentColor"/>
</g>
</svg>
