<svg width="27" height="25" viewBox="0 0 27 25" fill="none" xmlns="http://www.w3.org/2000/svg">
<path d="M26.928 19.5986C26.6573 20.23 25.5132 20.6939 23.4294 21.0174C23.3222 21.1621 23.2333 21.7802 23.0914 22.2617C23.007 22.5508 22.7994 22.7223 22.4615 22.7223L22.4461 22.7221C21.9581 22.7221 21.4487 22.4975 20.4282 22.4975C19.0507 22.4975 18.5759 22.8114 17.5064 23.5668C16.3725 24.3687 15.2849 25.0608 13.6616 24.9899C12.0179 25.1111 10.6478 24.1117 9.87675 23.5666C8.80089 22.806 8.32753 22.4976 6.95567 22.4976C5.9759 22.4976 5.35929 22.7427 4.93776 22.7427C4.51846 22.7427 4.35537 22.4871 4.29258 22.2732C4.15219 21.7959 4.06384 21.1688 3.95378 21.0199C2.87975 20.8533 0.457802 20.4307 0.396099 19.3501C0.38862 19.2143 0.431541 19.0805 0.516628 18.9744C0.601715 18.8683 0.722978 18.7974 0.857158 18.7752C4.47119 18.1802 6.099 14.4694 6.16668 14.3119C6.17052 14.3028 6.17473 14.294 6.17899 14.2852C6.37183 13.8937 6.41499 13.5659 6.30691 13.3112C6.04462 12.6933 4.91122 12.4716 4.43437 12.283C3.20265 11.7965 3.03125 11.2376 3.10412 10.8545C3.2307 10.1878 4.23249 9.77753 4.8182 10.0519C5.28144 10.269 5.693 10.3789 6.04119 10.3789C6.30203 10.3789 6.46771 10.3164 6.5585 10.2662C6.45239 8.3997 6.18968 5.73245 6.85387 4.24291C8.60799 0.310229 12.3259 0.00462251 13.4229 0.00462251C13.4719 0.00462251 13.8977 0 13.948 0C16.6565 0 19.2589 1.39091 20.5298 4.24042C21.1934 5.72845 20.9323 8.38469 20.8256 10.2657C20.9078 10.311 21.0519 10.3666 21.2722 10.3768C21.6045 10.362 21.9897 10.2528 22.4184 10.0519C22.7345 9.90405 23.1667 9.92405 23.4821 10.0549L23.4837 10.0554C23.9758 10.2312 24.2855 10.5859 24.2933 10.9835C24.3029 11.4898 23.8507 11.927 22.9493 12.2829C22.8392 12.3263 22.7055 12.3689 22.5631 12.4141C22.0543 12.5754 21.2855 12.8195 21.0769 13.3111C20.9689 13.5658 21.0116 13.8934 21.2046 14.2849C21.2092 14.2936 21.2133 14.3026 21.2171 14.3116C21.2846 14.469 22.911 18.1789 26.5267 18.7749C26.8605 18.8298 27.1065 19.184 26.928 19.5986Z" fill="currentColor"/>
</svg>
