<svg width="44" height="31" viewBox="0 0 44 31" fill="none" xmlns="http://www.w3.org/2000/svg">
<path d="M6.6 13.2C9.02688 13.2 11 11.2269 11 8.8C11 6.37313 9.02688 4.4 6.6 4.4C4.17313 4.4 2.2 6.37313 2.2 8.8C2.2 11.2269 4.17313 13.2 6.6 13.2ZM37.4 13.2C39.8269 13.2 41.8 11.2269 41.8 8.8C41.8 6.37313 39.8269 4.4 37.4 4.4C34.9731 4.4 33 6.37313 33 8.8C33 11.2269 34.9731 13.2 37.4 13.2ZM39.6 15.4H35.2C33.99 15.4 32.8969 15.8881 32.0994 16.6788C34.87 18.1981 36.8363 20.9412 37.2625 24.2H41.8C43.0169 24.2 44 23.2169 44 22V19.8C44 17.3731 42.0269 15.4 39.6 15.4ZM22 15.4C26.2556 15.4 29.7 11.9556 29.7 7.7C29.7 3.44438 26.2556 0 22 0C17.7444 0 14.3 3.44438 14.3 7.7C14.3 11.9556 17.7444 15.4 22 15.4ZM27.28 17.6H26.7094C25.2794 18.2875 23.6912 18.7 22 18.7C20.3088 18.7 18.7275 18.2875 17.2906 17.6H16.72C12.3475 17.6 8.8 21.1475 8.8 25.52V27.5C8.8 29.3219 10.2781 30.8 12.1 30.8H31.9C33.7219 30.8 35.2 29.3219 35.2 27.5V25.52C35.2 21.1475 31.6525 17.6 27.28 17.6ZM11.9006 16.6788C11.1031 15.8881 10.01 15.4 8.8 15.4H4.4C1.97312 15.4 0 17.3731 0 19.8V22C0 23.2169 0.983125 24.2 2.2 24.2H6.73063C7.16375 20.9412 9.13 18.1981 11.9006 16.6788Z" fill="currentColor"/>
</svg>
