<svg width="34" height="34" viewBox="0 0 34 34" fill="none" xmlns="http://www.w3.org/2000/svg">
<path fill-rule="evenodd" clip-rule="evenodd" d="M17 33.5C26.1127 33.5 33.5 26.1127 33.5 17C33.5 7.8873 26.1127 0.5 17 0.5C7.8873 0.5 0.5 7.8873 0.5 17C0.5 26.1127 7.8873 33.5 17 33.5ZM18 6.91667C18 6.36438 17.5523 5.91667 17 5.91667C16.4477 5.91667 16 6.36438 16 6.91667V16.75C16 17.4404 16.5596 18 17.25 18H23.4167C23.969 18 24.4167 17.5523 24.4167 17C24.4167 16.4477 23.969 16 23.4167 16H18V6.91667Z" fill="currentColor"/>
</svg>
