<svg width="35" height="25" viewBox="0 0 35 25" fill="none" xmlns="http://www.w3.org/2000/svg">
<path fill-rule="evenodd" clip-rule="evenodd" d="M1.29107 2.9493C0 4.7689 0 7.34593 0 12.5C0 17.6541 0 20.2311 1.29107 22.0507C1.74664 22.6928 2.30724 23.2534 2.9493 23.7089C4.7689 25 7.34593 25 12.5 25H22.2826C27.4367 25 30.0137 25 31.8333 23.7089C32.4754 23.2534 33.036 22.6928 33.4915 22.0507C34.7826 20.2311 34.7826 17.6541 34.7826 12.5C34.7826 7.34593 34.7826 4.7689 33.4915 2.9493C33.036 2.30724 32.4754 1.74664 31.8333 1.29107C30.0137 0 27.4367 0 22.2826 0H12.5C7.34593 0 4.7689 0 2.9493 1.29107C2.30724 1.74664 1.74664 2.30724 1.29107 2.9493ZM23.188 13.1116L14.0002 7.80702V18.4162L23.188 13.1116Z" fill="currentColor"/>
</svg>
